<svg height="512pt" viewBox="0 0 512 512" width="512pt" xmlns="http://www.w3.org/2000/svg"><path d="m256 256c-8.289062 0-15.011719-6.71875-15.011719-15.011719v-132.585937c0-8.292969 6.722657-15.011719 15.011719-15.011719s15.011719 6.71875 15.011719 15.011719v132.585937c0 8.292969-6.722657 15.011719-15.011719 15.011719zm0 0" fill="#f89f6f"/><path d="m256 256c-5.863281-5.863281-5.863281-15.367188 0-21.226562l93.753906-93.753907c5.863282-5.863281 15.367188-5.863281 21.226563 0 5.863281 5.859375 5.863281 15.363281 0 21.226563l-93.753907 93.753906c-5.863281 5.863281-15.367187 5.863281-21.226562 0zm0 0" fill="#f89f6f"/><path d="m256 256c0-8.289062 6.71875-15.011719 15.011719-15.011719h132.585937c8.292969 0 15.011719 6.722657 15.011719 15.011719s-6.71875 15.011719-15.011719 15.011719h-132.585937c-8.292969 0-15.011719-6.722657-15.011719-15.011719zm0 0" fill="#f89f6f"/><path d="m256 256c5.863281-5.863281 15.367188-5.863281 21.226562 0l93.753907 93.753906c5.863281 5.863282 5.863281 15.367188 0 21.226563-5.859375 5.863281-15.363281 5.863281-21.226563 0l-93.753906-93.753907c-5.863281-5.859374-5.863281-15.363281 0-21.226562zm0 0" fill="#f89f6f"/><path d="m256 256c8.289062 0 15.011719 6.71875 15.011719 15.011719v132.585937c0 8.292969-6.722657 15.011719-15.011719 15.011719s-15.011719-6.71875-15.011719-15.011719v-132.585937c0-8.292969 6.722657-15.011719 15.011719-15.011719zm0 0" fill="#f89f6f"/><path d="m256 256c5.863281 5.863281 5.863281 15.367188 0 21.226562l-93.753906 93.753907c-5.863282 5.863281-15.367188 5.863281-21.226563 0-5.863281-5.859375-5.863281-15.363281 0-21.226563l93.753907-93.753906c5.859374-5.863281 15.363281-5.863281 21.226562 0zm0 0" fill="#f89f6f"/><path d="m256 256c0 8.289062-6.71875 15.011719-15.011719 15.011719h-132.585937c-8.292969 0-15.011719-6.722657-15.011719-15.011719s6.71875-15.011719 15.011719-15.011719h132.585937c8.289063 0 15.011719 6.722657 15.011719 15.011719zm0 0" fill="#f89f6f"/><path d="m256 256c-5.863281 5.863281-15.367188 5.863281-21.226562 0l-93.753907-93.753906c-5.863281-5.863282-5.863281-15.367188 0-21.226563 5.859375-5.863281 15.363281-5.863281 21.226563 0l93.753906 93.753907c5.859375 5.859374 5.859375 15.363281 0 21.226562zm0 0" fill="#f89f6f"/><path d="m296.027344 256c0 22.105469-17.921875 40.027344-40.027344 40.027344s-40.027344-17.921875-40.027344-40.027344 17.921875-40.027344 40.027344-40.027344 40.027344 17.921875 40.027344 40.027344zm0 0" fill="#de8250"/><path d="m256 7.5c-15.660156 0-28.351562 12.695312-28.351562 28.351562 0 41.027344 13.339843 72.550782 13.339843 72.550782h30.023438s13.339843-31.523438 13.339843-72.550782c0-15.65625-12.695312-28.351562-28.351562-28.351562zm0 0" fill="#f89f6f"/><path d="m431.714844 80.285156c-11.070313-11.074218-29.023438-11.074218-40.09375 0-29.011719 29.011719-41.867188 60.734375-41.867188 60.734375l21.226563 21.226563s31.722656-12.855469 60.734375-41.867188c11.074218-11.070312 11.074218-29.023437 0-40.09375zm0 0" fill="#f89f6f"/><path d="m504.5 256c0-15.660156-12.695312-28.351562-28.351562-28.351562-41.027344 0-72.550782 13.339843-72.550782 13.339843v30.023438s31.523438 13.339843 72.550782 13.339843c15.65625 0 28.351562-12.691406 28.351562-28.351562zm0 0" fill="#f89f6f"/><path d="m431.714844 431.714844c11.074218-11.070313 11.074218-29.023438 0-40.09375-29.011719-29.011719-60.734375-41.867188-60.734375-41.867188l-21.226563 21.226563s12.855469 31.722656 41.867188 60.734375c11.070312 11.074218 29.023437 11.074218 40.09375 0zm0 0" fill="#f89f6f"/><path d="m256 504.5c15.660156 0 28.351562-12.695312 28.351562-28.351562 0-41.027344-13.339843-72.550782-13.339843-72.550782h-30.023438s-13.339843 31.523438-13.339843 72.550782c0 15.65625 12.691406 28.351562 28.351562 28.351562zm0 0" fill="#f89f6f"/><path d="m80.285156 431.714844c11.070313 11.074218 29.023438 11.074218 40.09375 0 29.011719-29.011719 41.867188-60.734375 41.867188-60.734375l-21.226563-21.226563s-31.722656 12.855469-60.734375 41.867188c-11.074218 11.070312-11.074218 29.023437 0 40.09375zm0 0" fill="#f89f6f"/><path d="m7.5 256c0 15.660156 12.695312 28.351562 28.351562 28.351562 41.027344 0 72.550782-13.339843 72.550782-13.339843v-30.023438s-31.523438-13.339843-72.550782-13.339843c-15.660156 0-28.351562 12.691406-28.351562 28.351562zm0 0" fill="#f89f6f"/><path d="m80.285156 80.285156c-11.074218 11.070313-11.074218 29.023438 0 40.09375 29.011719 29.011719 60.734375 41.867188 60.734375 41.867188l21.226563-21.226563s-12.855469-31.722656-41.867188-60.734375c-11.070312-11.074218-29.023437-11.074218-40.09375 0zm0 0" fill="#f89f6f"/><g fill="#de8250"><path d="m256 93.390625c-8.289062 0-15.011719 6.71875-15.011719 15.011719v55.734375c4.890625-.796875 9.902344-1.21875 15.011719-1.21875s10.121094.421875 15.011719 1.21875v-55.734375c0-8.292969-6.722657-15.011719-15.011719-15.011719zm0 0"/><path d="m228.222656 50.746094c2.550782 33.519531 12.765625 57.65625 12.765625 57.65625h30.023438s10.214843-24.136719 12.765625-57.65625c-9.085938-1.222656-18.359375-1.867188-27.777344-1.867188-9.421875 0-18.691406.644532-27.777344 1.867188zm0 0"/><path d="m370.980469 141.019531c-5.859375-5.863281-15.363281-5.863281-21.226563 0l-39.410156 39.410157c4.019531 2.890624 7.859375 6.140624 11.472656 9.753906 3.613282 3.613281 6.863282 7.453125 9.753906 11.472656l39.410157-39.410156c5.863281-5.863282 5.863281-15.367188 0-21.226563zm0 0"/><path d="m381.492188 91.222656c-21.894532 25.507813-31.738282 49.796875-31.738282 49.796875l21.226563 21.226563s24.289062-9.84375 49.796875-31.738282c-5.5625-7.292968-11.660156-14.304687-18.324219-20.964843-6.65625-6.660157-13.667969-12.757813-20.960937-18.320313zm0 0"/><path d="m418.609375 256c0-8.289062-6.71875-15.011719-15.011719-15.011719h-55.734375c.796875 4.890625 1.21875 9.902344 1.21875 15.011719s-.421875 10.121094-1.21875 15.011719h55.734375c8.292969 0 15.011719-6.722657 15.011719-15.011719zm0 0"/><path d="m461.253906 228.222656c-33.519531 2.550782-57.65625 12.765625-57.65625 12.765625v30.023438s24.136719 10.214843 57.65625 12.765625c1.222656-9.085938 1.867188-18.359375 1.867188-27.777344s-.644532-18.691406-1.867188-27.777344zm0 0"/><path d="m370.980469 370.980469c5.863281-5.859375 5.863281-15.363281 0-21.226563l-39.410157-39.410156c-2.890624 4.019531-6.140624 7.859375-9.753906 11.472656-3.613281 3.613282-7.453125 6.859375-11.472656 9.753906l39.410156 39.410157c5.863282 5.863281 15.367188 5.863281 21.226563 0zm0 0"/><path d="m420.777344 381.492188c-25.507813-21.894532-49.796875-31.738282-49.796875-31.738282l-21.226563 21.226563s9.84375 24.289062 31.738282 49.796875c7.292968-5.5625 14.304687-11.660156 20.964843-18.324219 6.660157-6.65625 12.757813-13.667969 18.320313-20.960937zm0 0"/><path d="m256 418.609375c8.289062 0 15.011719-6.71875 15.011719-15.011719v-55.734375c-4.890625.796875-9.902344 1.21875-15.011719 1.21875s-10.121094-.421875-15.011719-1.21875v55.734375c0 8.292969 6.722657 15.011719 15.011719 15.011719zm0 0"/><path d="m283.777344 461.253906c-2.550782-33.519531-12.765625-57.65625-12.765625-57.65625h-30.023438s-10.214843 24.136719-12.765625 57.65625c9.085938 1.222656 18.359375 1.867188 27.777344 1.867188s18.6875-.644532 27.777344-1.867188zm0 0"/><path d="m141.019531 370.980469c5.859375 5.863281 15.363281 5.863281 21.226563 0l39.410156-39.410157c-4.019531-2.890624-7.859375-6.140624-11.472656-9.753906-3.613282-3.613281-6.863282-7.453125-9.753906-11.472656l-39.410157 39.410156c-5.863281 5.863282-5.863281 15.367188 0 21.226563zm0 0"/><path d="m130.507812 420.777344c21.894532-25.507813 31.738282-49.796875 31.738282-49.796875l-21.226563-21.226563s-24.289062 9.84375-49.796875 31.738282c5.5625 7.292968 11.660156 14.304687 18.320313 20.964843 6.660156 6.660157 13.671875 12.757813 20.964843 18.320313zm0 0"/><path d="m93.390625 256c0 8.289062 6.71875 15.011719 15.011719 15.011719h55.734375c-.796875-4.890625-1.21875-9.902344-1.21875-15.011719s.421875-10.121094 1.21875-15.011719h-55.734375c-8.292969 0-15.011719 6.722657-15.011719 15.011719zm0 0"/><path d="m50.746094 283.777344c33.519531-2.550782 57.65625-12.765625 57.65625-12.765625v-30.023438s-24.136719-10.214843-57.65625-12.765625c-1.222656 9.085938-1.867188 18.359375-1.867188 27.777344s.644532 18.691406 1.867188 27.777344zm0 0"/><path d="m141.019531 141.019531c-5.863281 5.859375-5.863281 15.363281 0 21.226563l39.410157 39.410156c2.890624-4.019531 6.140624-7.859375 9.753906-11.472656 3.613281-3.613282 7.453125-6.863282 11.472656-9.753906l-39.410156-39.410157c-5.863282-5.863281-15.367188-5.863281-21.226563 0zm0 0"/><path d="m91.222656 130.507812c25.507813 21.894532 49.796875 31.738282 49.796875 31.738282l21.226563-21.226563s-9.84375-24.289062-31.738282-49.796875c-7.292968 5.5625-14.304687 11.660156-20.964843 18.324219-6.660157 6.65625-12.757813 13.667969-18.320313 20.960937zm0 0"/></g><path d="m256 436.121094c-99.320312 0-180.121094-80.800782-180.121094-180.121094s80.800782-180.121094 180.121094-180.121094 180.121094 80.800782 180.121094 180.121094-80.804688 180.121094-180.121094 180.121094zm0-300.203125c-66.214844 0-120.082031 53.867187-120.082031 120.082031 0 66.210938 53.867187 120.082031 120.082031 120.082031 66.210938 0 120.082031-53.867187 120.082031-120.082031-.003906-66.214844-53.871093-120.082031-120.082031-120.082031zm0 0" fill="#e98f5e"/><path d="m128.738281 263.535156c2.414063 36.054688 20.398438 70.832032 48.941407 93.105469.042968.03125.082031.066406.125.097656.011718.007813.023437.015625.035156.023438 45.277344 35.015625 111.152344 35.714843 156.324218 0 .011719-.007813.023438-.015625.03125-.023438.035157-.027343.070313-.054687.105469-.082031 33.941407-26.691406 52.8125-69.816406 48.6875-112.910156-5.710937-59.675782-54.761719-109.023438-114.765625-114.738282-75.445312-7.1875-144.5625 58.625-139.484375 134.527344zm33.375-69.585937 39.542969 39.539062h-55.972656c2.921875-14.355469 8.59375-27.726562 16.429687-39.539062zm86.847657-50.304688c4.847656-.300781 9.703124-.28125 14.550781.03125v65.390625c-.058594-.007812-.113281-.015625-.167969-.023437-4.84375-.765625-9.84375-.777344-14.6875 0-.054688.007812-.109375.015625-.164062.023437v-65.390625c.15625-.011719.3125-.019531.46875-.03125zm117.355468 89.84375h-55.972656l39.542969-39.539062c7.835937 11.8125 13.507812 25.183593 16.429687 39.539062zm-16.429687 84.566407-39.542969-39.542969h55.972656c-2.921875 14.355469-8.59375 27.726562-16.429687 39.542969zm-86.839844 50.335937c-1.308594.097656-14.558594.367187-14.558594-.066406v-65.390625c3.503907.578125 7.085938.703125 10.625.480468 1.472657-.089843 2.945313-.242187 4.398438-.480468v65.390625c-.003907.023437-.183594.046875-.464844.066406zm-14.949219-143.871094c19.859375-5.328125 40.429688 11.089844 40.429688 31.484375 0 17.578125-14.863282 32.488282-32.453125 32.519532-.023438 0-.046875.003906-.074219.003906-.023438 0-.050781-.003906-.074219-.003906-16.652343-.03125-30.972656-13.390626-32.347656-29.953126-1.292969-15.636718 9.851563-30.113281 24.519531-34.050781zm46.410156 59.367188 46.1875 46.191406c-3.300781 3.769531-6.851562 7.316406-10.621093 10.621094l-46.1875-46.191407c4.089843-2.953124 7.667969-6.53125 10.621093-10.621093zm-10.621093-66.394531 46.1875-46.1875c3.773437 3.300781 7.320312 6.851562 10.621093 10.621093l-46.1875 46.1875c-2.953124-4.089843-6.53125-7.667969-10.621093-10.621093zm-66.394531 10.621093-46.1875-46.1875c3.300781-3.773437 6.847656-7.320312 10.621093-10.621093l46.1875 46.1875c-4.089843 2.953124-7.667969 6.53125-10.621093 10.621093zm10.621093 66.394531-46.1875 46.1875c-3.773437-3.300781-7.320312-6.851562-10.621093-10.621093l46.1875-46.1875c2.953124 4.089843 6.53125 7.667969 10.621093 10.621093zm5.375 15.835938v55.976562c-14.355469-2.925781-27.726562-8.597656-39.539062-16.433593zm45.023438 0 39.539062 39.542969c-11.816406 7.835937-25.183593 13.507812-39.539062 16.429687zm90.007812-50.894531c-.039062 1.355469-.105469 2.707031-.195312 4.0625h-65.390625c.011718-.058594.070312-.496094.09375-.660157.691406-4.753906.664062-9.617187-.09375-14.359374h65.390625c.238281 3.644531.308593 7.304687.195312 10.957031zm-90.007812-57.792969v-55.972656c14.355469 2.921875 27.726562 8.59375 39.539062 16.429687zm-45.023438 0-39.542969-39.542969c11.816407-7.835937 25.1875-13.503906 39.542969-16.429687zm-89.8125 46.832031h65.390625c-.507812 3.21875-.679687 6.476563-.539062 9.730469.078125 1.769531.253906 3.542969.539062 5.292969h-65.390625c-.308593-.046875-.253906-7.171875-.253906-7.511719-.003906-1.148438.164063-6.15625.253906-7.511719zm57.980469 30.023438-39.542969 39.539062c-7.835937-11.8125-13.507812-25.183593-16.429687-39.539062zm0 0"/><path d="m83.734375 266.984375c-1.402344-22.296875 1.507813-44.886719 8.652344-66.050781 1.324219-3.921875-.785157-8.179688-4.710938-9.503906-3.925781-1.324219-8.179687.785156-9.503906 4.707031-2.988281 8.859375-5.289063 17.90625-6.914063 27.082031-11.925781-2.027344-23.800781-3.070312-35.40625-3.070312-19.769531 0-35.851562 16.082031-35.851562 35.851562s16.082031 35.851562 35.851562 35.851562c11.601563 0 23.476563-1.042968 35.398438-3.070312 4.84375 27.371094 15.644531 52.707031 31.003906 74.625-9.890625 7.011719-19.050781 14.6875-27.273437 22.910156-13.976563 13.980469-13.976563 36.722656 0 50.703125 13.828125 13.828125 36.882812 13.820313 50.703125 0 8.222656-8.222656 15.898437-17.382812 22.910156-27.273437 21.917969 15.359375 47.253906 26.160156 74.625 31.003906-2.027344 11.921875-3.070312 23.796875-3.070312 35.398438 0 19.769531 16.082031 35.851562 35.851562 35.851562s35.851562-16.082031 35.851562-35.851562c0-11.605469-1.042968-23.480469-3.070312-35.40625 23.789062-4.21875 46.597656-13.015626 67.199219-26.039063 2.519531-1.59375 4.980469-3.265625 7.417969-4.972656 7.011718 9.898437 14.691406 19.0625 22.917968 27.289062 13.820313 13.820313 36.894532 13.808594 50.703125 0 13.980469-13.980469 13.980469-36.722656 0-50.703125-8.226562-8.226562-17.386719-15.90625-27.285156-22.917968 5.289063-7.558594 10.054687-15.503907 14.207031-23.8125 1.851563-3.703126.347656-8.207032-3.355468-10.058594-3.707032-1.851563-8.210938-.351563-10.0625 3.355468-32.519532 65.097657-105.417969 103.851563-177.527344 94.203126-75.878906-10.152344-137.941406-72.257813-148.082032-148.09375-.53125-3.984376-.925781-7.992188-1.179687-12.007813zm316.925781 108.351563c9.367188 6.601562 18.007813 13.84375 25.753906 21.585937 8.128907 8.132813 8.128907 21.359375 0 29.492187-8.035156 8.035157-21.464843 8.023438-29.492187 0-7.742187-7.746093-14.984375-16.386718-21.585937-25.75.148437-.125.296874-.257812.449218-.382812 8.871094-7.347656 17.050782-15.5625 24.425782-24.414062.148437-.175782.300781-.351563.449218-.53125zm-331.421875-101.410157c-11.261719 1.941407-22.464843 2.925781-33.386719 2.925781-11.496093 0-20.851562-9.355468-20.851562-20.851562s9.355469-20.851562 20.851562-20.851562c10.925782 0 22.125.984374 33.386719 2.925781-.398437.101562-.425781 7.085937-.457031 7.671875-.515625 9.421875-.453125 18.777344.457031 28.179687zm45.839844 152.488281c-8.050781 8.046876-21.453125 8.035157-29.492187 0-8.128907-8.132812-8.128907-21.359374 0-29.492187 7.742187-7.742187 16.378906-14.980469 25.742187-21.582031 7.625 9.222656 16.109375 17.707031 25.332031 25.328125-6.601562 9.363281-13.839844 18.003906-21.582031 25.746093zm158.847656 16.347657c1.941407 11.261719 2.925781 22.464843 2.925781 33.386719 0 11.496093-9.351562 20.851562-20.851562 20.851562s-20.851562-9.355469-20.851562-20.851562c0-10.925782.984374-22.125 2.925781-33.386719.101562.007812.203125.015625.304687.023437 11.644532 1.082032 23.625 1.101563 35.359375-.007812.0625-.003906.125-.007813.1875-.015625zm0 0"/><path d="m409.746094 148.59375c9.890625-7.007812 19.050781-14.6875 27.273437-22.910156 13.980469-13.980469 13.980469-36.722656 0-50.703125-6.769531-6.769531-15.773437-10.5-25.351562-10.5-9.574219 0-18.578125 3.726562-25.351563 10.5-8.222656 8.222656-15.898437 17.378906-22.910156 27.273437-21.917969-15.359375-47.253906-26.160156-74.625-31.003906 2.027344-11.921875 3.070312-23.796875 3.070312-35.398438 0-19.769531-16.082031-35.851562-35.851562-35.851562s-35.851562 16.082031-35.851562 35.851562c0 11.609376 1.042968 23.492188 3.074218 35.417969-27.046875 4.789063-52.480468 15.433594-74.65625 30.949219-7.003906-9.878906-14.671875-19.023438-22.882812-27.238281-6.769532-6.769531-15.773438-10.5-25.351563-10.5-9.574219 0-18.578125 3.730469-25.351562 10.5-13.976563 13.980469-13.976563 36.726562 0 50.703125 8.222656 8.226562 17.382812 15.902344 27.28125 22.914062-4.265625 6.101563-8.21875 12.476563-11.785157 19.144532-1.957031 3.652343-.582031 8.199218 3.070313 10.152343 3.652344 1.957031 8.199219.582031 10.152344-3.070312 4.429687-8.277344 9.484375-16.082031 15.054687-23.394531.023438-.03125.050782-.058594.074219-.089844 37.378906-48.546875 99.324219-74.628906 160.152344-66.425782 44.730469 6.035157 86.554687 30.296876 114.191406 66.425782.011719.019531.027344.03125.039063.050781 17.792968 23.28125 29.804687 51.199219 33.875 81.609375 3.277343 24.515625 1.261718 49.730469-5.972657 73.386719-1.210937 3.960937 1.015625 8.152343 4.976563 9.367187 3.785156 1.15625 8.148437-1 9.367187-4.980468 2.207031-7.222657 3.964844-14.566407 5.28125-21.992188 11.925781 2.027344 23.804688 3.074219 35.410157 3.074219 19.769531-.003907 35.851562-16.085938 35.851562-35.855469s-16.082031-35.851562-35.851562-35.851562c-11.601563 0-23.476563 1.042968-35.398438 3.070312-4.84375-27.371094-15.644531-52.703125-31.003906-74.625zm-12.824219-63.007812c3.9375-3.9375 9.175781-6.105469 14.746094-6.105469 5.570312 0 10.808593 2.167969 14.746093 6.105469 8.128907 8.132812 8.128907 21.359374 0 29.492187-7.742187 7.742187-16.382812 14.980469-25.746093 21.582031-7.621094-9.222656-16.105469-17.707031-25.328125-25.332031 6.601562-9.359375 13.84375-18 21.582031-25.742187zm-158.847656-16.347657c-1.941407-11.257812-2.925781-22.460937-2.925781-33.386719 0-11.496093 9.355468-20.851562 20.851562-20.851562s20.851562 9.355469 20.851562 20.851562c0 10.925782-.980468 22.125-2.925781 33.386719-.117187-.011719-.234375-.015625-.347656-.027343-10.257813-.992188-20.617187-1.085938-30.894531-.355469-1.535156.109375-3.070313.238281-4.609375.382812zm-152.488281 45.839844c-8.128907-8.132813-8.128907-21.359375 0-29.492187 3.9375-3.9375 9.175781-6.105469 14.746093-6.105469 5.570313 0 10.804688 2.167969 14.746094 6.105469 7.734375 7.738281 14.96875 16.367187 21.566406 25.726562-9.171875 7.574219-17.664062 16.042969-25.324219 25.339844-9.359374-6.597656-17.996093-13.835938-25.734374-21.574219zm357.175781 122.996094c11.261719-1.941407 22.460937-2.925781 33.386719-2.925781 11.496093 0 20.851562 9.355468 20.851562 20.851562s-9.355469 20.851562-20.851562 20.851562c-10.921876 0-22.121094-.980468-33.382813-2.925781.273437-2.878906.480469-5.769531.621094-8.664062.441406-8.976563.230469-17.980469-.605469-26.925781-.007812-.085938-.011719-.175782-.019531-.261719zm0 0"/></svg>