<svg height="407pt" viewBox="0 -42 407.40523 407" width="407pt" xmlns="http://www.w3.org/2000/svg"><g fill="#00e7ff"><path d="m396.359375 288.296875h-259.839844c-3.769531 0-6.828125-3.054687-6.828125-6.824219 0-3.769531 3.058594-6.828125 6.828125-6.828125h259.839844c3.769531 0 6.828125 3.058594 6.828125 6.828125 0 3.769532-3.058594 6.824219-6.828125 6.824219zm0 0"/><path d="m92.3125 288.296875c-3.75 0-6.804688-3.023437-6.828125-6.78125-.023437-3.769531 3.015625-6.847656 6.785156-6.871094l7.894531-.050781c3.695313-.183594 6.84375 3.015625 6.867188 6.785156.023438 3.769532-3.011719 6.847656-6.785156 6.871094l-7.890625.046875c-.011719 0-.03125 0-.042969 0zm0 0"/><path d="m60.390625 288.296875h-53.5625c-3.773437 0-6.828125-3.054687-6.828125-6.824219 0-3.769531 3.054688-6.828125 6.828125-6.828125h53.5625c3.769531 0 6.828125 3.058594 6.828125 6.828125 0 3.769532-3.058594 6.824219-6.828125 6.824219zm0 0"/><path d="m393.75 322.382812h-88.746094c-3.769531 0-6.824218-3.058593-6.824218-6.828124 0-3.769532 3.054687-6.824219 6.824218-6.824219h88.746094c3.773438 0 6.828125 3.054687 6.828125 6.824219 0 3.769531-3.054687 6.828124-6.828125 6.828124zm0 0"/><path d="m270.871094 322.382812h-20.480469c-3.769531 0-6.824219-3.058593-6.824219-6.828124 0-3.769532 3.054688-6.824219 6.824219-6.824219h20.480469c3.769531 0 6.828125 3.054687 6.828125 6.824219 0 3.769531-3.058594 6.828124-6.828125 6.828124zm0 0"/><path d="m223.085938 322.382812h-13.652344c-3.773438 0-6.828125-3.058593-6.828125-6.828124 0-3.769532 3.054687-6.824219 6.828125-6.824219h13.652344c3.769531 0 6.824218 3.054687 6.824218 6.824219 0 3.769531-3.054687 6.828124-6.824218 6.828124zm0 0"/><path d="m182.125 322.382812h-61.441406c-3.769532 0-6.824219-3.058593-6.824219-6.828124 0-3.769532 3.054687-6.824219 6.824219-6.824219h61.441406c3.769531 0 6.828125 3.054687 6.828125 6.824219 0 3.769531-3.058594 6.828124-6.828125 6.828124zm0 0"/><path d="m86.550781 322.382812h-61.4375c-3.769531 0-6.828125-3.058593-6.828125-6.828124 0-3.769532 3.058594-6.824219 6.828125-6.824219h61.4375c3.769531 0 6.828125 3.054687 6.828125 6.824219 0 3.769531-3.058594 6.828124-6.828125 6.828124zm0 0"/></g><path d="m66.46875 247.289062h-41.933594l-17.707031-47.785156h389.53125l-61.972656 47.785156h-207.222657" fill="#ea3457"/><path d="m334.386719 254.117188h-207.226563c-3.769531 0-6.824218-3.058594-6.824218-6.828126 0-3.769531 3.054687-6.828124 6.824218-6.828124h204.898438l44.269531-34.132813h-359.691406l12.644531 34.132813h37.183594c3.769531 0 6.828125 3.058593 6.828125 6.828124 0 3.769532-3.058594 6.828126-6.828125 6.828126h-41.929688c-2.859375 0-5.410156-1.777344-6.402344-4.453126l-17.707031-47.789062c-.777343-2.097656-.4804685-4.441406.796875-6.273438 1.277344-1.832031 3.371094-2.925781 5.605469-2.925781h389.53125c2.921875 0 5.519531 1.859375 6.464844 4.621094.9375 2.769531.019531 5.828125-2.296875 7.613281l-61.972656 47.785156c-1.195313.921876-2.664063 1.421876-4.167969 1.421876zm0 0" fill="#602f75"/><path d="m318.660156 172.195312h40.957032v27.308594h-40.957032zm0 0" fill="#ffe600"/><path d="m359.617188 206.328125h-40.957032c-3.773437 0-6.828125-3.054687-6.828125-6.824219v-27.308594c0-3.769531 3.054688-6.828124 6.828125-6.828124h40.957032c3.769531 0 6.828124 3.058593 6.828124 6.828124v27.308594c0 3.769532-3.058593 6.824219-6.828124 6.824219zm-34.132813-13.652344h27.308594v-13.652343h-27.308594zm0 0" fill="#602f75"/><path d="m59.246094 172.195312h225.277344v27.308594h-225.277344zm0 0" fill="#ffe600"/><path d="m284.523438 206.328125h-225.277344c-3.769532 0-6.828125-3.054687-6.828125-6.824219v-27.308594c0-3.769531 3.058593-6.828124 6.828125-6.828124h225.277344c3.773437 0 6.828124 3.058593 6.828124 6.828124v27.308594c0 3.769532-3.054687 6.824219-6.828124 6.824219zm-218.453126-13.652344h211.628907v-13.652343h-211.628907zm0 0" fill="#602f75"/><path d="m147.992188 144.890625h109.226562v27.304687h-109.226562zm0 0" fill="#fff"/><path d="m257.21875 179.023438h-109.226562c-3.769532 0-6.828126-3.058594-6.828126-6.828126v-27.304687c0-3.773437 3.058594-6.828125 6.828126-6.828125h109.226562c3.769531 0 6.828125 3.054688 6.828125 6.828125v27.304687c0 3.769532-3.058594 6.828126-6.828125 6.828126zm-102.398438-13.65625h95.570313v-13.652344h-95.570313zm0 0" fill="#602f75"/><path d="m168.472656 117.582031h68.53125v27.308594h-68.53125zm0 0" fill="#ffe600"/><path d="m237.007812 151.714844h-68.535156c-3.769531 0-6.824218-3.054688-6.824218-6.824219v-27.308594c0-3.769531 3.054687-6.828125 6.824218-6.828125h68.535156c3.769532 0 6.824219 3.058594 6.824219 6.828125v27.308594c0 3.769531-3.054687 6.824219-6.824219 6.824219zm-61.710937-13.652344h54.882813v-13.652344h-54.882813zm0 0" fill="#602f75"/><path d="m113.859375 151.714844h-61.441406c-3.769531 0-6.824219-3.054688-6.824219-6.824219 0-3.773437 3.054688-6.828125 6.824219-6.828125h61.441406c3.769531 0 6.824219 3.054688 6.824219 6.828125 0 3.769531-3.054688 6.824219-6.824219 6.824219zm0 0" fill="#602f75"/><path d="m400.578125 179.023438h-81.917969c-3.773437 0-6.828125-3.058594-6.828125-6.828126 0-3.769531 3.054688-6.828124 6.828125-6.828124h81.917969c3.769531 0 6.828125 3.058593 6.828125 6.828124 0 3.769532-3.058594 6.828126-6.828125 6.828126zm0 0" fill="#602f75"/><path d="m79.726562 179.023438c-3.769531 0-6.828124-3.058594-6.828124-6.828126v-27.304687c0-3.773437 3.058593-6.828125 6.828124-6.828125 3.769532 0 6.824219 3.054688 6.824219 6.828125v27.304687c0 3.769532-3.054687 6.828126-6.824219 6.828126zm0 0" fill="#602f75"/><path d="m202.605469 124.410156c-3.742188 0-6.792969-3.019531-6.828125-6.765625l-1.011719-110.550781c-.035156-3.769531 2.992187-6.859375 6.761719-6.890625h.0625c3.746094 0 6.792968 3.015625 6.828125 6.761719l1.015625 110.554687c.03125 3.769531-2.996094 6.855469-6.765625 6.890625-.023438 0-.042969 0-.0625 0zm0 0" fill="#602f75"/><path d="m236.738281 56.140625h-68.265625c-3.769531 0-6.828125-3.054687-6.828125-6.824219 0-3.769531 3.058594-6.828125 6.828125-6.828125h68.265625c3.769531 0 6.828125 3.058594 6.828125 6.828125 0 3.769532-3.058594 6.824219-6.828125 6.824219zm0 0" fill="#602f75"/><path d="m223.085938 83.449219h-40.960938c-3.769531 0-6.828125-3.058594-6.828125-6.828125 0-3.769532 3.058594-6.824219 6.828125-6.824219h40.960938c3.769531 0 6.824218 3.054687 6.824218 6.824219 0 3.769531-3.054687 6.828125-6.824218 6.828125zm0 0" fill="#602f75"/></svg>