<?xml version="1.0" encoding="iso-8859-1"?>
<!-- Generator: Adobe Illustrator 19.0.0, SVG Export Plug-In . SVG Version: 6.00 Build 0)  -->
<svg version="1.1" id="Capa_1" xmlns="http://www.w3.org/2000/svg" xmlns:xlink="http://www.w3.org/1999/xlink" x="5px" y="5px"
	 viewBox="0 0 480 480" style="enable-background:new 0 0 480 480;" xml:space="preserve" fill='white'>
<g>
	<g>
		<path d="M240,112c-70.692,0-128,57.308-128,128s57.308,128,128,128s128-57.308,128-128C367.916,169.342,310.658,112.084,240,112z
			 M351.592,232h-48.144c-1.427-11.377-5.902-22.157-12.952-31.2l34.048-34.048C340.402,184.99,349.896,207.892,351.592,232z
			 M248,128.408c24.103,1.7,46.999,11.193,65.232,27.048L279.2,189.504c-9.043-7.05-19.823-11.525-31.2-12.952V128.408z
			 M232,128.408v48.144c-11.377,1.427-22.157,5.902-31.2,12.952l-34.048-34.048C184.99,139.598,207.892,130.104,232,128.408z
			 M155.456,166.768l34.048,34.032c-7.05,9.043-11.525,19.823-12.952,31.2h-48.144C130.108,207.897,139.601,185.001,155.456,166.768
			z M128.408,248h48.144c1.427,11.377,5.902,22.157,12.952,31.2l-34.048,34.048C139.598,295.01,130.104,272.108,128.408,248z
			 M232,351.592c-24.103-1.7-46.998-11.193-65.232-27.048l34.032-34.048c9.043,7.05,19.823,11.525,31.2,12.952V351.592z M192,240
			c0-26.51,21.49-48,48-48c26.51,0,48,21.49,48,48c-0.026,26.499-21.501,47.974-48,48C213.49,288,192,266.51,192,240z M248,351.592
			v-48.144c11.377-1.427,22.157-5.902,31.2-12.952l34.048,34.048C295.01,340.402,272.108,349.896,248,351.592z M324.544,313.232
			L290.496,279.2c7.05-9.043,11.525-19.823,12.952-31.2h48.144C349.892,272.103,340.399,294.998,324.544,313.232z"/>
	</g>
</g>
<g>
	<g>
		<path d="M240,208c-17.673,0-32,14.327-32,32s14.327,32,32,32c17.673,0,32-14.327,32-32S257.673,208,240,208z M240,256
			c-8.837,0-16-7.163-16-16s7.163-16,16-16s16,7.163,16,16S248.837,256,240,256z"/>
	</g>
</g>
<g>
	<g>
		<path d="M456,216h-32c-0.655,0-1.308,0.081-1.944,0.24l-23.136,5.784c-3.377-29.858-15.14-58.15-33.928-81.6l20.544-12.328
			c0.562-0.335,1.08-0.738,1.544-1.2l22.624-22.624c9.373-9.372,9.375-24.568,0.003-33.941c-0.001-0.001-0.002-0.002-0.003-0.003
			c-9.493-9.072-24.443-9.072-33.936,0l-22.632,22.624c-0.462,0.464-0.865,0.982-1.2,1.544l-12.328,20.544
			c-23.45-18.788-51.742-30.551-81.6-33.928l5.784-23.136c0.151-0.647,0.221-1.311,0.208-1.976V24c0-13.255-10.745-24-24-24
			s-24,10.745-24,24v32c0,0.655,0.081,1.308,0.24,1.944l5.784,23.136c-29.858,3.377-58.15,15.14-81.6,33.928l-12.328-20.544
			c-0.335-0.562-0.738-1.08-1.2-1.544L104.24,70.296c-9.497-9.069-24.446-9.069-33.944,0c-9.369,9.372-9.369,24.564,0,33.936
			l22.624,22.632c0.464,0.462,0.982,0.865,1.544,1.2l20.544,12.328c-18.788,23.45-30.551,51.742-33.928,81.6l-23.136-5.752
			C57.308,216.081,56.655,216,56,216H24c-13.255,0-24,10.745-24,24s10.745,24,24,24h32c0.655,0,1.308-0.081,1.944-0.24l23.136-5.784
			c3.377,29.858,15.14,58.15,33.928,81.6l-20.544,12.328c-0.562,0.335-1.08,0.738-1.544,1.2L70.296,375.76
			c-9.45,9.295-9.575,24.49-0.281,33.94c9.295,9.45,24.49,9.575,33.94,0.281c0.093-0.091,0.185-0.184,0.277-0.277l22.632-22.624
			c0.462-0.464,0.865-0.982,1.2-1.544l12.328-20.544c23.45,18.788,51.742,30.551,81.6,33.928l-5.784,23.136
			c-0.149,0.637-0.218,1.29-0.208,1.944v32c0,13.255,10.745,24,24,24s24-10.745,24-24v-32c0-0.655-0.081-1.308-0.24-1.944
			l-5.784-23.136c29.858-3.377,58.15-15.14,81.6-33.928l12.328,20.544c0.335,0.562,0.738,1.08,1.2,1.544l22.624,22.624
			c9.295,9.45,24.49,9.575,33.94,0.28c9.45-9.295,9.575-24.49,0.28-33.94c-0.091-0.093-0.183-0.185-0.276-0.276l-22.624-22.632
			c-0.464-0.462-0.982-0.865-1.544-1.2l-20.544-12.328c18.788-23.45,30.551-51.742,33.928-81.6l23.136,5.784
			c0.647,0.151,1.311,0.221,1.976,0.208h32c13.255,0,24-10.745,24-24S469.255,216,456,216z M80,241.752L55.016,248H24
			c-4.418,0-8-3.582-8-8s3.582-8,8-8h31.016L80,238.248V241.752z M365.144,103.536L387.08,81.6c3.162-3.029,8.15-3.029,11.312,0
			c3.118,3.123,3.118,8.181,0,11.304l-21.928,21.936L354.4,128.104l-2.48-2.48L365.144,103.536z M232,24c0-4.418,3.582-8,8-8
			s8,3.582,8,8v31.016L241.752,80h-3.504L232,55.016V24z M103.536,114.832L81.6,92.92c-3.123-3.124-3.123-8.188,0-11.312
			c3.161-3.024,8.143-3.024,11.304,0l21.936,21.928l13.264,22.064l-2.48,2.48L103.536,114.832z M114.856,376.464L92.92,398.4
			c-3.162,3.029-8.15,3.029-11.312,0c-3.118-3.123-3.118-8.181,0-11.304l21.928-21.936l22.064-13.264l2.48,2.48L114.856,376.464z
			 M248,456c0,4.418-3.582,8-8,8s-8-3.582-8-8v-31.016L238.248,400h3.504L248,424.984V456z M376.464,365.168L398.4,387.08
			c3.123,3.124,3.123,8.188,0,11.312c-3.161,3.024-8.143,3.024-11.304,0l-21.936-21.928L351.896,354.4l2.48-2.48L376.464,365.168z
			 M240,384c-79.529,0-144-64.471-144-144S160.471,96,240,96s144,64.471,144,144C383.907,319.491,319.491,383.907,240,384z M456,248
			h-31.016L400,241.752v-3.472l24.984-6.28H456c4.418,0,8,3.582,8,8S460.418,248,456,248z"/>
	</g>
</g>
<g>
</g>
<g>
</g>
<g>
</g>
<g>
</g>
<g>
</g>
<g>
</g>
<g>
</g>
<g>
</g>
<g>
</g>
<g>
</g>
<g>
</g>
<g>
</g>
<g>
</g>
<g>
</g>
<g>
</g>
</svg>
